PathFileType	4	(X/Y/Z)	0_coords_data.trc
DataRate	CameraRate	NumFrames	NumMarkers	Units	OrigDataRate	OrigDataStartFrame	OrigNumFrames
30.0	30.0	5	21	m	30.0	48	57
Frame#	Time	THUMB_TIP	THUMB_IP	THUMB_MCP	THUMB_CMC	INDEX_TIP	INDEX_DIP	INDEX_PIP	INDEX_MCP	MIDDLE_TIP	MIDDLE_DIP	MIDDLE_PIP	MIDDLE_MCP	RING_TIP	RING_DIP	RING_PIP	RING_MCP	PINKY_TIP	PINKY_DIP	PINKY_PIP	PINKY_MCP	WRIST
X1	Y1	Z1	X2	Y2	Z2	X3	Y3	Z3	X4	Y4	Z4	X5	Y5	Z5	X6	Y6	Z6	X7	Y7	Z7	X8	Y8	Z8	X9	Y9	Z9	X10	Y10	Z10	X11	Y11	Z11	X12	Y12	Z12	X13	Y13	Z13	X14	Y14	Z14	X15	Y15	Z15	X16	Y16	Z16	X17	Y17	Z17	X18	Y18	Z18	X19	Y19	Z19	X20	Y20	Z20	X21	Y21	Z21
46	1.5666666666666598	0.5085158748601363	-0.04758623846329457	-0.1600175344934554	0.4998910481052088	-0.043020611209989124	-0.13921447194893177	0.47665132674944766	-0.042319279605141924	-0.11852042726726986	0.4766909013909001	-0.03154928594137696	-0.07523191065685436	0.5568605337788908	0.020433882004683435	-0.1802030263976448	0.5418752979762443	0.020064423120176644	-0.17003906023911475	0.5219430911969603	0.017461604187166246	-0.1549413021436284	0.49428948434293074	0.003692736257028817	-0.12562693027784883	0.5795516511992952	0.03204841542911796	-0.158111983236074	0.5637762243663508	0.03204216290000039	-0.1492161488657468	0.5383865386850016	0.030896185329847392	-0.13495220318402873	0.5047528750400638	0.01632066493422868	-0.10940853868544709	0.5851379096833355	0.0388070524515286	-0.1289821605694227	0.5689565106155514	0.04028911125111123	-0.1211740989710679	0.5461804641499881	0.039894985700751784	-0.11111048374347415	0.5161895414102655	0.0203434148211189	-0.09232215057209664	0.5849558896932061	0.02976083410054242	-0.09083570680814568	0.5701498603169154	0.03532186513849911	-0.08428922470679584	0.5502343764340027	0.037454448806753304	-0.07799338420632695	0.5207781812078836	0.017719873634507333	-0.07137805680915776	0.4622830810018609	-0.023011742144276925	-0.051989820119430985
47	1.599999999999993	0.5099530078496957	-0.04849547574578583	-0.1591194481073403	0.5008792450187578	-0.043789770311292275	-0.13853976967322312	0.4772969795006121	-0.04291289005998111	-0.11824376430131467	0.47685243598816696	-0.031739884564460086	-0.0750597819784371	0.5567967098707144	0.021473765284092616	-0.18078110512797474	0.542060339697692	0.020300584818872203	-0.1703186464437227	0.5224733077774709	0.01689438233760454	-0.15493177547484632	0.4948645702071143	0.0030986019153373956	-0.12558777870699322	0.5798360875519143	0.03402825307559243	-0.15830878896628447	0.5641960441511489	0.032852307698342575	-0.14925306177892383	0.5389998000017695	0.030388846887497434	-0.13481387234189862	0.5053022130817266	0.01571648844725748	-0.1094102809704553	0.5857880058219096	0.04050243085832472	-0.12887473859521964	0.569592893277465	0.04067979857671089	-0.12095723454626256	0.5468819099421836	0.03918378848082327	-0.11085014947006117	0.5166202787441846	0.019841184578382687	-0.09228086877560271	0.5861536898543378	0.03126015857171882	-0.08995285903224332	0.5708193116638747	0.03558142385693519	-0.08369318557058159	0.5507248503129475	0.036820660493532165	-0.07773592658891798	0.5210626948882373	0.017317666232618212	-0.07135837208745749	0.462283081001861	-0.023011742144276925	-0.051989820119430985
49	1.633333333333334	0.5111185029338879	-0.049207458795411996	-0.15836221290899755	0.5016716668593594	-0.04439529371519735	-0.13797593430249977	0.4778205739498754	-0.04340929790387882	-0.11800162131598574	0.4769896444399909	-0.031894562275347815	-0.07491321893721747	0.5567912363164141	0.02229064556861282	-0.18115875125232234	0.5422823204380494	0.020445304154161792	-0.17047764292506323	0.5229870879500595	0.01638758044816424	-0.15488153076336703	0.4953845049257609	0.0025749835228608964	-0.12553965504681114	0.5800400297744659	0.03570622477347851	-0.15834040332034943	0.5645597084787322	0.03352677765177803	-0.14919657136516984	0.5395614720531444	0.029954081988932235	-0.1346455036616951	0.5057876184108395	0.015195459017452673	-0.10939361701665645	0.5862759813210565	0.04199766766428081	-0.12866039747506908	0.5701358038226262	0.04104638859510179	-0.120686080046492	0.547516584646679	0.03856955254278904	-0.11056599180377263	0.5170074746151411	0.0194009864415563	-0.09222257029342756	0.5871055198615194	0.03264564968036254	-0.0890564839672694	0.5713875949421706	0.03584502386334487	-0.0830806291274177	0.5511687315640543	0.03625952297200197	-0.07743813205732603	0.5213121559770408	0.016973266132648268	-0.0713137020966324	0.4622830810018609	-0.023011742144276925	-0.05198982011943093
50	1.6666666666666674	0.5120974869066602	-0.04972922724000772	-0.1577186684631648	0.5023216292407858	-0.044854038581003564	-0.13750320056267623	0.4782483500212179	-0.043804008182005916	-0.11780054430069209	0.47710106682800035	-0.03201930702440059	-0.07479246878108187	0.556844678395441	0.022882696269378777	-0.18136917322121476	0.542524708014918	0.020506467976990517	-0.17053903068275306	0.523456531270232	0.01594473094815052	-0.15480356043515242	0.4958109197788537	0.0021554283588542944	-0.1254912525531618	0.5801847682392763	0.03706940334675357	-0.15826541447953713	0.5648697691367012	0.0340597720105682	-0.1490788524616562	0.5400545313572529	0.029580726720351058	-0.1344654450137805	0.5061865773664387	0.014782885062598283	-0.10936298505966097	0.586643975564554	0.043239294929523275	-0.12838299154500005	0.5705980185828421	0.04133520829864834	-0.12038913648982319	0.5480789484410353	0.03803539878657969	-0.11028058980236832	0.5173219503719667	0.019059187213234408	-0.0921523991010616	0.5878439108108122	0.03383875686555826	-0.08820038240315864	0.5718588457788168	0.03605714045830355	-0.08249455466668476	0.5515605425988808	0.035767651331684136	-0.07713665367273492	0.5215129539823335	0.01670377995889616	-0.07125492963870028	0.4622830810018609	-0.023011742144276925	-0.051989820119430985
51	1.7000000000000006	0.5128756420667515	-0.05005845971286982	-0.15720424867606408	0.5028156302955452	-0.045163239184533244	-0.13713354915805664	0.4785664569208905	-0.04408931443124098	-0.11764908672589791	0.4771846117460834	-0.03211099874265522	-0.07470143886041591	0.556931989099076	0.02329310860076017	-0.18145467918093627	0.542752635197765	0.02052579797802334	-0.17053277848285886	0.5238450506560712	0.015596830149760987	-0.15471448666779042	0.49612798345198017	0.0018490467144144374	-0.12545019562531495	0.5802711554613887	0.03815466826398717	-0.15813358570400154	0.5651080958050849	0.03448794941390265	-0.14893375990490054	0.5404476833960414	0.029300944033270104	-0.13429242851061868	0.5064849628912422	0.014489237042197955	-0.10932655434359784	0.5868935232892827	0.04426338805620711	-0.12808564309611425	0.5709556828394267	0.04158818489769167	-0.12009636716799638	0.5485332389159654	0.037623030112328926	-0.11001214508459534	0.5175525261684695	0.018824449010627298	-0.09208089804988268	0.5883842385366662	0.0348434178216106	-0.0874208568379023	0.5722227850834585	0.036242753297996644	-0.08195740714889371	0.551877839750829	0.03537707607467766	-0.07684410866774238	0.5216573220616988	0.01651809385728309	-0.07119233449276297	0.4622830810018609	-0.023011742144276925	-0.051989820119430985
